<svg xmlns="http://www.w3.org/2000/svg" viewBox="0 0 1200 900" width="1200" height="900" role="img">
  <defs>
  <linearGradient id="bg" x1="0" y1="0" x2="1" y2="1">
    <stop offset="0%" stop-color="#f7f3ee"/><stop offset="55%" stop-color="#e6dcd0"/><stop offset="100%" stop-color="#d3c6b6"/>
  </linearGradient>
  <linearGradient id="brass" x1="0" y1="0" x2="1" y2="1">
    <stop offset="0%" stop-color="#e6b877"/><stop offset="100%" stop-color="#b8863f"/>
  </linearGradient>
  <linearGradient id="water" x1="0" y1="0" x2="0" y2="1">
    <stop offset="0%" stop-color="#cfe3e6" stop-opacity=".75"/><stop offset="100%" stop-color="#cfe3e6" stop-opacity="0"/>
  </linearGradient>
  <pattern id="veins" width="140" height="140" patternUnits="userSpaceOnUse" patternTransform="rotate(24)">
    <path d="M0 70 Q35 30 70 70 T140 70" fill="none" stroke="#b9a893" stroke-width="1.6" opacity=".55"/>
    <path d="M0 118 Q40 92 80 118" fill="none" stroke="#c4b4a0" stroke-width="1.2" opacity=".4"/>
  </pattern></defs>
  
  <rect width="1200" height="900" fill="url(#bg)"/>
  <rect width="1200" height="900" fill="url(#veins)"/>
  
  <g opacity="0.045" stroke="#ffffff" stroke-width="1">
    <line x1="0" y1="0" x2="0" y2="900"/><line x1="66" y1="0" x2="66" y2="900"/><line x1="132" y1="0" x2="132" y2="900"/><line x1="198" y1="0" x2="198" y2="900"/><line x1="264" y1="0" x2="264" y2="900"/><line x1="330" y1="0" x2="330" y2="900"/><line x1="396" y1="0" x2="396" y2="900"/><line x1="462" y1="0" x2="462" y2="900"/><line x1="528" y1="0" x2="528" y2="900"/><line x1="594" y1="0" x2="594" y2="900"/><line x1="660" y1="0" x2="660" y2="900"/><line x1="726" y1="0" x2="726" y2="900"/><line x1="792" y1="0" x2="792" y2="900"/><line x1="858" y1="0" x2="858" y2="900"/><line x1="924" y1="0" x2="924" y2="900"/><line x1="990" y1="0" x2="990" y2="900"/><line x1="1056" y1="0" x2="1056" y2="900"/><line x1="1122" y1="0" x2="1122" y2="900"/><line x1="1188" y1="0" x2="1188" y2="900"/>
    <line x1="0" y1="0" x2="1200" y2="0"/><line x1="0" y1="66" x2="1200" y2="66"/><line x1="0" y1="132" x2="1200" y2="132"/><line x1="0" y1="198" x2="1200" y2="198"/><line x1="0" y1="264" x2="1200" y2="264"/><line x1="0" y1="330" x2="1200" y2="330"/><line x1="0" y1="396" x2="1200" y2="396"/><line x1="0" y1="462" x2="1200" y2="462"/><line x1="0" y1="528" x2="1200" y2="528"/><line x1="0" y1="594" x2="1200" y2="594"/><line x1="0" y1="660" x2="1200" y2="660"/><line x1="0" y1="726" x2="1200" y2="726"/><line x1="0" y1="792" x2="1200" y2="792"/><line x1="0" y1="858" x2="1200" y2="858"/>
  </g>
  <!-- book-matched marble panels -->
  <g opacity=".5">
    <rect x="0" y="0" width="600" height="900" fill="#efe8de"/>
    <rect x="600" y="0" width="600" height="900" fill="#e7dfd3"/>
    <rect x="592" y="0" width="16" height="900" fill="#cfc2b0"/>
  </g>
  <!-- rain shower -->
  <rect x="150" y="96" width="300" height="26" rx="13" fill="url(#brass)"/>
  <rect x="286" y="40" width="18" height="60" fill="url(#brass)"/>
  <rect x="140" y="122" width="320" height="300" fill="url(#water)"/>
  <g stroke="#bfd8dc" stroke-width="3" opacity=".6" stroke-linecap="round">
    <line x1="158" y1="130" x2="158" y2="300"/><line x1="177" y1="130" x2="177" y2="337"/><line x1="196" y1="130" x2="196" y2="374"/><line x1="215" y1="130" x2="215" y2="301"/><line x1="234" y1="130" x2="234" y2="338"/><line x1="253" y1="130" x2="253" y2="375"/><line x1="272" y1="130" x2="272" y2="302"/><line x1="291" y1="130" x2="291" y2="339"/><line x1="310" y1="130" x2="310" y2="376"/><line x1="329" y1="130" x2="329" y2="303"/><line x1="348" y1="130" x2="348" y2="340"/><line x1="367" y1="130" x2="367" y2="377"/><line x1="386" y1="130" x2="386" y2="304"/><line x1="405" y1="130" x2="405" y2="341"/><line x1="424" y1="130" x2="424" y2="378"/><line x1="443" y1="130" x2="443" y2="305"/>
  </g>
  <!-- glass panel -->
  <rect x="500" y="130" width="14" height="700" rx="6" fill="#ffffff" opacity=".55"/>
  <rect x="500" y="130" width="14" height="700" rx="6" fill="none" stroke="#b9c9cc" stroke-width="3"/>
  <!-- vanity -->
  <rect x="700" y="560" width="440" height="200" rx="14" fill="#efe6da"/>
  <rect x="700" y="560" width="440" height="16" rx="8" fill="#d9cdbc"/>
  <rect x="760" y="640" width="320" height="8" rx="4" fill="#c6b7a3"/>
  <ellipse cx="920" cy="546" rx="118" ry="34" fill="#fbf8f4"/>
  <ellipse cx="920" cy="540" rx="102" ry="27" fill="#e2d7c8"/>
  <path d="M920 520 v-88 h-70 v16 h56 v72" fill="none" stroke="url(#brass)" stroke-width="12" stroke-linecap="round"/>
  <!-- mirror + backlight -->
  <circle cx="920" cy="300" r="150" fill="#ffffff" opacity=".5"/>
  <circle cx="920" cy="300" r="150" fill="none" stroke="url(#brass)" stroke-width="9"/>
  <circle cx="920" cy="300" r="168" fill="none" stroke="#f5a623" stroke-width="14" opacity=".22"/>
  <!-- floor -->
  <rect x="0" y="820" width="1200" height="80" fill="#ded2c1"/>
  <rect x="0" y="820" width="1200" height="6" fill="#cbbdab"/>
</svg>